mtllib m4a1_mag.mtl
o m4a1_mag
v -0.02217 0.05040 0.00606
v -0.01771 0.07997 0.00606
v -0.02217 0.05040 -0.00606
v -0.01771 0.07997 -0.00606
v 0.03272 0.06458 0.01056
v 0.03223 0.07579 0.01056
v 0.03272 0.06458 -0.01056
v 0.03223 0.07579 -0.01056
v -0.03272 0.01423 0.00606
v -0.03272 0.01423 -0.00606
v 0.01722 0.00000 0.01056
v 0.01722 0.00000 -0.01056
v -0.01814 0.12370 0.00606
v -0.01814 0.12370 -0.00606
v 0.03197 0.12405 0.01056
v 0.03197 0.12405 -0.01056
v 0.00366 0.04734 -0.00831
v 0.00726 0.07788 -0.00831
v 0.00366 0.04734 0.00831
v 0.00726 0.07788 0.00831
v -0.00775 0.00711 -0.00831
v -0.00775 0.00711 0.00831
v 0.00692 0.12388 -0.00831
v 0.00692 0.12388 0.00831
v 0.02421 0.02515 0.01056
v 0.02421 0.02515 -0.01056
v -0.02806 0.03121 0.00606
v -0.02806 0.03121 -0.00606
v -0.00266 0.02612 -0.00831
v -0.00266 0.02612 0.00831
vt 0.91560 0.22811
vt 0.91560 0.00349
vt 0.96575 0.00349
vt 0.96575 0.22811
vt 0.59446 0.25500
vt 0.62802 0.02507
vt 0.44761 0.00349
vt 0.40654 0.23913
vt 0.82122 0.24092
vt 0.82122 0.00349
vt 0.90862 0.00349
vt 0.90862 0.24092
vt 0.60027 0.25500
vt 0.63383 0.02507
vt 0.81424 0.04665
vt 0.78818 0.27087
vt 0.82122 0.42721
vt 0.90862 0.42721
vt 0.90862 0.61349
vt 0.82122 0.61349
vt 0.80842 0.04665
vt 0.89931 0.80849
vt 0.90862 0.99651
vt 0.82122 0.99651
vt 0.83053 0.80849
vt 0.61339 0.42723
vt 0.80121 0.42812
vt 0.81424 0.58537
vt 0.62651 0.59945
vt 0.60758 0.42723
vt 0.41976 0.42634
vt 0.43298 0.61354
vt 0.62070 0.59945
vt 0.91560 0.38512
vt 0.96575 0.38512
vt 0.96575 0.54213
vt 0.91560 0.54213
vt 0.89832 0.80197
vt 0.88901 0.62052
vt 0.83886 0.62052
vt 0.82955 0.80197
vt 0.45342 0.00349
vt 0.90764 0.98343
vt 0.82023 0.98343
vt 0.79540 0.42812
vt 0.80842 0.58537
vt 0.42557 0.42634
vt 0.43879 0.61354
vt 0.88999 0.62047
vt 0.83984 0.62047
vt 0.41235 0.23913
vt 0.78237 0.27087
vn -0.8475 0.1927 0.4946
vn -0.8663 0.0604 0.4958
vn -0.8663 0.0604 -0.4958
vn -0.8475 0.1927 -0.4946
vn -0.0857 0.0175 -0.9962
vn -0.0878 0.0041 -0.9961
vn 0.8540 0.0236 -0.5197
vn 0.8719 -0.0723 -0.4844
vn 0.8540 0.0236 0.5197
vn 0.8719 -0.0723 0.4844
vn -0.0857 0.0175 0.9962
vn -0.0878 0.0041 0.9961
vn 0.8366 -0.2060 -0.5076
vn 0.8366 -0.2060 0.5076
vn 0.4434 -0.8084 0.3872
vn 0.4434 -0.8084 -0.3872
vn -0.6708 0.6479 -0.3609
vn -0.0506 0.8674 -0.4951
vn -0.2790 -0.8229 -0.4949
vn -0.2790 -0.8229 0.4949
vn -0.0840 0.0230 0.9962
vn -0.8455 0.2455 0.4742
vn -0.8163 -0.4502 0.3618
vn -0.0840 0.0230 -0.9962
vn -0.8455 0.2455 -0.4742
vn -0.8163 -0.4502 -0.3618
vn -0.6708 0.6479 0.3609
vn -0.0506 0.8674 0.4951
vn 0.6412 0.6620 -0.3880
vn 0.6412 0.6620 0.3880
usemtl mag
f 1/1/1 2/2/2 4/3/3 3/4/4
f 17/5/5 18/6/6 8/7/7 7/8/8
f 7/9/8 8/10/7 6/11/9 5/12/10
f 19/13/11 20/14/12 2/15/2 1/16/1
f 26/17/13 25/18/14 11/19/15 12/20/16
f 18/6/6 4/21/3 14/21/17 23/6/18
f 21/22/19 12/23/16 11/24/15 22/25/20
f 30/26/21 27/27/22 9/28/23 22/29/20
f 29/30/24 26/31/13 12/32/16 21/33/19
f 27/34/22 28/35/25 10/36/26 9/37/23
f 23/38/18 14/39/17 13/40/27 24/41/28
f 6/11/9 8/10/7 16/10/29 15/11/30
f 4/3/3 2/2/2 13/2/27 14/3/17
f 20/14/12 6/42/9 15/42/30 24/14/28
f 2/15/2 20/14/12 24/14/28 13/15/27
f 16/43/29 23/38/18 24/41/28 15/44/30
f 28/45/25 29/30/24 21/33/19 10/46/26
f 25/47/14 30/26/21 22/29/20 11/48/15
f 10/49/26 21/22/19 22/25/20 9/50/23
f 8/7/7 18/6/6 23/6/18 16/7/29
f 5/51/10 6/42/9 20/14/12 19/13/11
f 3/52/4 4/21/3 18/6/6 17/5/5
f 5/51/10 19/13/11 30/26/21 25/47/14
f 3/52/4 17/5/5 29/30/24 28/45/25
f 1/1/1 3/4/4 28/35/25 27/34/22
f 17/5/5 7/8/8 26/31/13 29/30/24
f 19/13/11 1/16/1 27/27/22 30/26/21
f 7/9/8 5/12/10 25/18/14 26/17/13
